<?xml version="1.0" standalone="no"?>
<!DOCTYPE svg PUBLIC "-//W3C//DTD SVG 20010904//EN"
 "http://www.w3.org/TR/2001/REC-SVG-20010904/DTD/svg10.dtd">
<svg version="1.0" xmlns="http://www.w3.org/2000/svg"
 width="16.000000pt" height="16.000000pt" viewBox="0 0 16.000000 16.000000"
 preserveAspectRatio="xMidYMid meet">
<metadata>
Created by potrace 1.11, written by Peter Selinger 2001-2013
</metadata>
<g transform="translate(0.000000,16.000000) scale(0.002286,-0.002286)"
fill="#000000" stroke="none">
<path d="M3468 6248 c-88 -142 -541 -883 -558 -913 -27 -48 -460 -756 -485
-795 -12 -19 -92 -149 -176 -288 -192 -315 -355 -582 -446 -732 -223 -366
-300 -492 -335 -550 -21 -36 -61 -100 -88 -143 -28 -43 -50 -81 -50 -83 0 -3
-18 -32 -40 -65 -22 -33 -40 -63 -40 -65 0 -3 -8 -17 -19 -32 -16 -23 -268
-434 -312 -510 -9 -15 -55 -90 -102 -167 -134 -218 -290 -475 -316 -519 -13
-23 -36 -60 -52 -83 -16 -23 -29 -44 -29 -48 0 -3 -27 -48 -60 -101 -33 -52
-60 -97 -60 -100 0 -3 -5 -10 -10 -17 -6 -7 -58 -90 -115 -185 l-105 -172 723
0 723 0 0 150 -1 150 -25 1 c-38 1 -114 10 -118 14 -3 2 5 16 16 32 11 15 33
51 49 78 17 28 163 264 325 525 162 261 402 648 533 860 275 444 495 799 549
885 20 33 43 69 49 79 7 11 30 49 53 85 22 37 107 174 189 306 81 132 187 302
234 377 47 76 96 155 107 175 12 20 26 39 31 40 5 2 105 -155 222 -349 118
-194 287 -472 376 -618 89 -146 231 -384 315 -530 84 -146 163 -281 175 -300
12 -19 41 -69 65 -110 114 -198 520 -852 815 -1315 74 -115 135 -213 135 -217
0 -5 -31 -8 -70 -8 l-70 0 0 -155 0 -155 730 0 729 0 -28 48 c-15 26 -65 107
-109 181 -45 74 -82 138 -82 142 0 5 -3 9 -8 9 -4 0 -12 9 -17 21 -10 21 -91
155 -370 614 -87 143 -183 301 -213 350 -29 50 -100 167 -157 260 -100 165
-223 368 -256 423 -30 52 -393 648 -487 802 -52 85 -103 169 -112 185 -9 17
-48 82 -87 145 -39 63 -122 201 -185 305 -63 105 -231 381 -373 615 -142 234
-263 434 -269 445 -7 11 -25 40 -41 65 -16 25 -33 54 -39 65 -6 11 -38 64 -71
118 -33 54 -67 110 -76 125 -9 15 -106 176 -216 357 -110 182 -204 338 -210
348 -8 16 -16 9 -55 -55z"/>
</g>
</svg>
