<svg xmlns="http://www.w3.org/2000/svg" width="20" height="20" version="1.1" viewBox="0 0 512 512">
  <path d="m375 217c5 12 12 21 20 27c9 6 16 10 23 11c8 1 15 5 23 12c8 6 14 16 18 28c7 21-5 49-38 82c-33 34-76 61-129 81c-56 20-107 27-152 23c-45-5-72-17-79-39c-7-18-5-37 6-56c11-20 14-39 9-57c-19-66-27-117-24-154c3-37 22-70 58-98c9-8 14-16 15-26c1-10 6-17 14-20c9-3 16-1 24 6c7 7 17 10 29 9c45-1 78 11 101 34c23 23 50 69 82 137m-95 207c30-11 57-25 81-44c24-18 41-33 51-46c10-13 14-22 13-26c-3-7-11-13-25-17c-14-3-35-4-63 0c-29 3-61 11-96 24c-35 13-65 28-89 45c-24 17-40 31-48 43c-8 12-11 21-9 27c2 4 10 8 26 11c16 4 39 4 69 2c30-2 60-8 90-19m-32-89c3-1 6-2 11-4c4-1 7-3 8-3c0 0 1 1 1 1c5 13 2 28-8 42c-11 15-26 26-46 32c-33 13-59 10-78-7c27-23 64-43 112-61"/>
</svg>
