<svg xmlns="http://www.w3.org/2000/svg" version="1.1" viewBox="0 0 20 20"><path d="m17.68 7.36-15.36 0c-0.15 0-0.29 0.15-0.29 0.34l0 11.01C2.03 18.85 2.17 19 2.32 19l15.36 0c0.15 0 0.29-0.15 0.29-0.29l0-11.01c0-0.2-0.15-0.34-0.29-0.34zM7.36 16.7c-0.54 0-1.12-0.15-1.57-0.29-0.1-0.05-0.15-0.1-0.1-0.2l0.15-1.08c0-0.05 0-0.05 0.05-0.1 0.05 0 0.1-0.05 0.15 0 0.49 0.2 0.93 0.24 1.42 0.24 0.59 0 0.98-0.24 0.98-0.64 0-0.44-0.24-0.68-1.47-0.78-0.1 0-0.15-0.05-0.15-0.15l0-1.08c0-0.1 0.05-0.15 0.15-0.15 1.03-0.1 1.17-0.39 1.17-0.64 0-0.15 0-0.44-0.73-0.44-0.34 0-0.78 0.1-1.17 0.29-0.05 0.05-0.1 0.05-0.15 0-0.05 0-0.1-0.05-0.1-0.1L5.84 10.54c0-0.05 0.05-0.15 0.1-0.15 0.49-0.24 1.08-0.34 1.81-0.34 1.27 0 2.15 0.59 2.15 1.47 0 0.68-0.34 1.17-1.03 1.52 0.59 0.2 1.22 0.64 1.22 1.52 0 1.32-1.08 2.15-2.74 2.15zm6.65-0.29c0 0.1-0.05 0.2-0.15 0.2l-1.32 0c-0.05 0-0.15-0.1-0.15-0.2l0-4.3-0.83 0.34c-0.05 0-0.1 0-0.15 0-0.05-0.05-0.1-0.1-0.1-0.15l-0.15-1.08c0-0.05 0.05-0.1 0.1-0.15l1.86-0.93c0.05 0 0.05 0 0.1 0l0.64 0c0.1 0 0.15 0.05 0.15 0.15l0 6.11zm3.67-13.99-1.66 0 0 0.78c0 0.78-0.44 1.66-1.76 1.66-1.27 0-1.76-0.88-1.76-1.66l0-0.78-4.99 0 0 0.78c0 0.78-0.44 1.66-1.76 1.66-1.27 0-1.76-0.88-1.76-1.66l0-0.78-1.66 0c-0.15 0-0.29 0.15-0.29 0.29l0 3.23c0 0.2 0.15 0.34 0.29 0.34l15.36 0c0.15 0 0.29-0.15 0.29-0.34l0-3.23c0-0.15-0.15-0.29-0.29-0.29zM5.74 3.84c0.54 0 0.73-0.2 0.73-0.64l0-1.57C6.48 1.2 6.28 1 5.74 1 5.21 1 5.01 1.2 5.01 1.64l0 1.57c0 0.44 0.2 0.64 0.73 0.64zm8.51 0c0.54 0 0.73-0.2 0.73-0.64l0-1.57C14.99 1.2 14.79 1 14.26 1c-0.54 0-0.73 0.2-0.73 0.64l0 1.57c0 0.44 0.2 0.64 0.73 0.64z"/></svg>
