<svg xmlns="http://www.w3.org/2000/svg" version="1.1" viewBox="0 0 20 20"><path d="m2.93 17.7 2.88 0 0-2.88-2.88 0zm3.52 0 3.23 0 0-2.88-3.23 0zm-3.52-3.52 2.88 0 0-3.23-2.88 0zm3.52 0 3.23 0 0-3.23-3.23 0zm-3.52-3.87 2.88 0 0-2.88-2.88 0zm7.38 7.38 3.23 0 0-2.88-3.23 0zm-3.87-7.38 3.23 0 0-2.88-3.23 0zm7.73 7.38 2.88 0 0-2.88-2.88 0zm-3.87-3.52 3.23 0 0-3.23-3.23 0zM6.8 5.5l0-2.88c0-0.11-0.04-0.18-0.11-0.25-0.07-0.07-0.14-0.07-0.25-0.07l-0.63 0c-0.07 0-0.14 0-0.21 0.07-0.07 0.07-0.11 0.14-0.11 0.25l0 2.88c0 0.07 0.04 0.18 0.11 0.21 0.07 0.07 0.14 0.11 0.21 0.11l0.63 0c0.11 0 0.18-0.04 0.25-0.11 0.07-0.04 0.11-0.14 0.11-0.21zm7.38 8.68 2.88 0 0-3.23-2.88 0zm-3.87-3.87 3.23 0 0-2.88-3.23 0zm3.87 0 2.88 0 0-2.88-2.88 0zM14.5 5.5l0-2.88c0-0.11-0.04-0.18-0.11-0.25-0.07-0.07-0.14-0.07-0.21-0.07l-0.63 0c-0.11 0-0.18 0-0.25 0.07-0.07 0.07-0.11 0.14-0.11 0.25l0 2.88c0 0.07 0.04 0.18 0.11 0.21 0.07 0.07 0.14 0.11 0.25 0.11l0.63 0c0.07 0 0.14-0.04 0.21-0.11C14.46 5.68 14.5 5.57 14.5 5.5Zm3.87-0.63 0 12.83c0 0.35-0.14 0.67-0.39 0.91C17.73 18.86 17.42 19 17.07 19L2.93 19c-0.35 0-0.67-0.14-0.91-0.39-0.25-0.25-0.39-0.56-0.39-0.91l0-12.83c0-0.35 0.14-0.67 0.39-0.91 0.25-0.25 0.56-0.39 0.91-0.39l1.27 0 0-0.95c0-0.46 0.18-0.84 0.49-1.16C5.01 1.14 5.39 1 5.82 1l0.63 0c0.46 0 0.84 0.14 1.16 0.46 0.32 0.32 0.46 0.7 0.46 1.16l0 0.95 3.87 0 0-0.95c0-0.46 0.14-0.84 0.46-1.16C12.71 1.14 13.09 1 13.55 1l0.63 0c0.42 0 0.81 0.14 1.13 0.46 0.32 0.32 0.49 0.7 0.49 1.16l0 0.95 1.27 0c0.35 0 0.67 0.14 0.91 0.39 0.25 0.25 0.39 0.56 0.39 0.91z"/></svg>
