<svg xmlns:svg="http://www.w3.org/2000/svg" xmlns="http://www.w3.org/2000/svg" version="1.1" viewBox="0 0 20 20">
    <path d="m8.07 4.23c-1.02 0-1.97 0.18-2.88 0.53-0.88 0.32-1.58 0.81-2.11 1.41-0.53 0.6-0.77 1.23-0.77 1.9 0 0.56 0.18 1.09 0.53 1.62 0.35 0.49 0.84 0.95 1.48 1.3l0.98 0.56-0.35 0.84c0.21-0.14 0.42-0.25 0.63-0.39l0.42-0.32 0.53 0.11c0.53 0.11 1.05 0.14 1.55 0.14 1.02 0 2-0.18 2.88-0.53 0.88-0.35 1.58-0.81 2.11-1.41 0.53-0.6 0.81-1.23 0.81-1.93 0-0.67-0.28-1.3-0.81-1.9-0.53-0.6-1.23-1.09-2.11-1.41-0.88-0.35-1.86-0.53-2.88-0.53zm0-1.3c1.3 0 2.46 0.25 3.55 0.7 1.09 0.46 1.97 1.09 2.57 1.86 0.63 0.77 0.95 1.65 0.95 2.57 0 0.95-0.32 1.79-0.95 2.6-0.6 0.77-1.48 1.41-2.57 1.86-1.09 0.46-2.25 0.7-3.55 0.7-0.56 0-1.16-0.07-1.76-0.18-0.84 0.6-1.76 1.02-2.81 1.3-0.31 0.07-0.65 0.12-0.88 0.14-0.24-0.01-0.3-0.18-0.32-0.35 0.01-0.14 0.05-0.2 0.11-0.28 0.09-0.13 0.22-0.24 0.32-0.35 0.22-0.22 0.35-0.4 0.49-0.56 0.11-0.14 0.18-0.28 0.25-0.39 0.07-0.14 0.14-0.28 0.21-0.46C2.83 11.61 2.2 11.01 1.7 10.31 1.25 9.61 1 8.87 1 8.06c0-0.91 0.32-1.79 0.95-2.57 0.63-0.77 1.48-1.41 2.57-1.86 1.09-0.46 2.29-0.7 3.55-0.7zm8.26 11.74c0.07 0.18 0.14 0.32 0.21 0.46 0.19 0.36 0.47 0.67 0.71 0.98 0.14 0.14 0.28 0.28 0.38 0.39 0.1 0.13 0.08 0.18 0.07 0.28-0.04 0.1-0.09 0.25-0.35 0.28-0.32-0.04-0.63-0.07-0.84-0.14-1.05-0.28-1.97-0.7-2.81-1.3-0.6 0.11-1.2 0.18-1.76 0.18-1.83 0-3.41-0.46-4.75-1.34 0.39 0.04 0.67 0.04 0.88 0.04 1.09 0 2.11-0.14 3.09-0.46 1.02-0.28 1.9-0.7 2.67-1.27 0.84-0.63 1.48-1.34 1.93-2.14 0.42-0.81 0.67-1.65 0.67-2.57 0-0.49-0.07-1.02-0.25-1.51 0.88 0.49 1.55 1.05 2.07 1.79 0.49 0.7 0.74 1.48 0.74 2.32 0 0.77-0.25 1.55-0.7 2.25-0.49 0.7-1.12 1.27-1.97 1.76z"/>
</svg>
