<svg xmlns="http://www.w3.org/2000/svg" version="1.1" viewBox="0 0 20 20"><path d="m18.89 10.92-1.18-1.28c-0.14-0.15-0.42-0.15-0.57 0l-2.45 2.71-2.83 3.07-2.21-2.4c-0.14-0.15-0.38-0.15-0.57 0l-1.13 1.28c-0.19 0.2-0.19 0.46 0 0.61l2.45 2.66 0.42 0.46 0.75 0.82c0.14 0.2 0.38 0.2 0.57 0l1.13-1.28 5.6-6.03c0.14-0.15 0.14-0.46 0-0.61zm-12.53 1.64 1.18-1.23c0.99-1.12 2.73-1.12 3.72 0l0.61 0.61 2.68-2.76 0-8.18L1 1 1 19 8.53 19 6.37 16.65c-1.04-1.12-1.04-2.97 0-4.09zm-0.85-9.92 7.53 0 0 1.64-7.53 0zm0 3.27 7.53 0 0 1.64-7.53 0zm-1.51 4.91-1.51 0 0-1.64 1.51 0zm0-3.27-1.51 0 0-1.64 1.51 0zm0-3.27-1.51 0 0-1.64 1.51 0zm1.51 4.91 1.51 0 0 1.64-1.51 0z"/></svg>
