<svg xmlns="http://www.w3.org/2000/svg" version="1.1" viewBox="0 0 20 20"><path d="m18.38 8.53-1.71-1.71c-0.08-0.08-0.24-0.08-0.37 0l-4.68 4.72 0 0-0.04 0-0.61 2.4 0 0c-0.04 0.08-0.04 0.2 0.04 0.24 0.08 0.08 0.2 0.12 0.29 0.08l0 0 2.4-0.65 0 0 0 0 4.68-4.72c0.12-0.08 0.12-0.24 0-0.37zm-6.64 4.93 0.37-1.43 1.06 1.06zm3.3 1.38-1.55 0c0 0 0 0 0 0-0.12 0-0.24 0.12-0.24 0.24l0 0 0 1.83-8.67 0 0-12.79 1.02 0 0 0.61c0 0.04 0 0.04 0 0.04 0 0.2 0.16 0.37 0.37 0.37 0.04 0 0.04 0 0.04 0l0 0 5.82 0c0.2 0 0.37-0.16 0.37-0.37 0 0 0 0 0 0l0-0.65 1.06 0 0 1.79 0 0c0 0.16 0.12 0.29 0.24 0.29l1.55 0c0.16 0 0.29-0.12 0.29-0.29l0-2.77 0 0c0 0 0 0 0 0 0-0.61-0.49-1.1-1.1-1.1 0 0 0 0-0.04 0l-3.01 0 0-0.73c0-0.16-0.16-0.33-0.33-0.33l0 0-3.87 0 0 0c0 0 0 0 0 0-0.2 0-0.33 0.16-0.33 0.33 0 0 0 0 0 0.04l0 0.69-3.05 0c0 0 0 0 0 0-0.61 0-1.1 0.49-1.1 1.1 0 0 0 0 0 0l0 0 0 14.74 0 0c0 0 0 0 0 0 0 0.61 0.49 1.1 1.1 1.1 0 0 0 0 0.04 0l0 0 10.51 0c0.04 0 0.04 0 0.08 0 0.61 0 1.1-0.49 1.1-1.1 0 0 0 0 0 0l0 0 0-2.81c0-0.12-0.12-0.24-0.29-0.24z"/></svg>
