<svg xmlns="http://www.w3.org/2000/svg" width="20" height="20" version="1.1" viewBox="0 0 512 512">
  <path fill="#000" d="m256 20c65 0 120 24 166 70c46 46 70 101 70 166c0 65-24 120-70 166c-46 46-101 70-166 70c-65 0-120-24-166-70c-46-46-70-101-70-166c0-65 24-120 70-166c46-46 101-70 166-70m0 420c51 0 95-18 131-54c35-36 53-79 53-130c0-51-18-95-53-131c-36-35-80-53-131-53c-51 0-94 18-130 53c-36 36-54 80-54 131c0 51 18 94 54 130c36 36 79 54 130 54m18-317c0 0 0 125 0 125c0 0 77 77 77 77c0 0-25 25-25 25c0 0-87-87-87-87c0 0 0-140 0-140c0 0 35 0 35 0"/>
</svg>
