<svg xmlns="http://www.w3.org/2000/svg" width="20" height="20" version="1.1" viewBox="0 0 512 512">
  <path d="m256 28c-126 0-228 102-228 228c0 126 102 228 228 228c126 0 228-102 228-228c0-126-102-228-228-228z m143 159c-7 10-15 20-27 28l0 5c1 45-21 104-74 137c-26 17-55 25-88 25c-26 0-51-6-74-18c-7-3-11-6-13-7c-2-1-2-3-2-4c0-3 2-5 4-5c2 0 4 0 7 0c3 1 5 1 7 1c20 0 39-5 56-16c-21-5-37-20-44-40c0-1 0-1 0-1c0-3 2-5 4-5c1 0 2 0 2 0c1 0 2 1 2 1c-18-11-29-31-29-52c0-3 3-5 6-5c1 0 3 1 5 2c3 1 4 2 4 2c-9-11-13-24-13-38c0-11 3-23 8-31c1-1 2-2 4-2c1 0 3 1 4 2c7 8 12 14 16 17c24 22 56 35 88 38c0-2 0-4 0-7c0-33 27-60 60-60c16 0 30 5 42 17c9-2 20-7 31-13c1 0 1 0 2 0c3 0 5 2 5 4c0 5-7 17-12 23c2-1 7-3 11-4c2-1 3-1 4-1c2 0 4 2 4 4c1 1 0 2 0 3z"/>
</svg>
