<svg xmlns:svg="http://www.w3.org/2000/svg" xmlns="http://www.w3.org/2000/svg" version="1.1" viewBox="0 0 20 20">
    <path d="m19 4.45c-0.5 0.69-1.11 1.33-1.87 1.91 0 0 0 0.46 0 0.46 0 1.68-0.38 3.32-1.14 4.88-0.8 1.56-2.02 2.9-3.66 3.97-1.64 1.07-3.51 1.6-5.64 1.6-2.1 0-3.97-0.53-5.68-1.64 0.19 0.04 0.5 0.04 0.92 0.04 1.72 0 3.24-0.5 4.58-1.53-0.8-0.04-1.53-0.31-2.14-0.76-0.65-0.46-1.07-1.07-1.3-1.83 0.11 0.04 0.34 0.08 0.65 0.08 0.34 0 0.69-0.04 0.99-0.11C3.82 11.32 3.14 10.9 2.56 10.21 2.03 9.52 1.76 8.76 1.76 7.88c0 0 0-0.04 0-0.04 0.46 0.23 1.03 0.42 1.64 0.46C2.3 7.54 1.76 6.51 1.76 5.21 1.76 4.6 1.92 3.99 2.26 3.38 4.28 5.82 6.8 7.12 9.89 7.2 9.81 6.97 9.77 6.7 9.77 6.4c0-1.03 0.34-1.91 1.07-2.59 0.72-0.72 1.6-1.07 2.63-1.07 1.07 0 1.94 0.34 2.67 1.11C16.9 3.69 17.7 3.42 18.47 3 18.2 3.84 17.67 4.53 16.86 5.02 17.59 4.91 18.31 4.72 19 4.45"/>
</svg>
