<svg xmlns="http://www.w3.org/2000/svg" version="1.1" viewBox="0 0 20 20"><g transform="matrix(1.1008604,0,0,1.1008604,-1.0785739,-1.0349634)"><path d="M15 1.09C14.8 1.09 14.58 1.17 14.41 1.28L14.41 1.31 14.38 1.31 2.34 13.34 2.25 13.41 2.22 13.5 1.09 17.75 1.06 17.81 1.09 17.81C1.05 17.94 1.02 18.07 1.03 18.19A0.45 0.45 0 0 0 1.44 18.91L18.56 18.91A0.45 0.45 0 0 0 18.56 18.03L5.03 18.03 6.34 17.69 6.44 17.69 6.53 17.59 18.59 5.5C18.75 5.33 18.84 5.09 18.84 4.91 18.84 4.71 18.75 4.53 18.59 4.38L15.56 1.31C15.4 1.15 15.21 1.09 15 1.09zM15.19 2.06C15.23 2.06 15.23 2.07 15.22 2.06L17.88 4.69C17.86 4.68 17.88 4.69 17.88 4.72 17.88 4.75 17.86 4.76 17.88 4.75L16.41 6.22 15.31 5.13 4.06 16.19C4.44 16.53 4.84 16.79 5.22 16.97L2.13 17.84 2.09 17.88 2.06 17.88C2.05 17.88 2.02 17.89 2 17.88L2 17.84 2 17.81 3.03 14.81C3.2 15.15 3.43 15.51 3.72 15.84L14.97 4.78 13.69 3.5 15.06 2.09C15.11 2.06 15.15 2.06 15.19 2.06z" transform="matrix(0.90838039,0,0,0.90838039,0.97975538,0.94014046)"/></g></svg>