<svg xmlns:svg="http://www.w3.org/2000/svg" xmlns="http://www.w3.org/2000/svg" version="1.1" viewBox="0 0 20 20"><path d="m19 7.63 0 7.91c0 0.42-0.14 0.8-0.46 1.11C18.23 16.96 17.84 17.1 17.38 17.1l-14.77 0C2.16 17.1 1.77 16.96 1.46 16.65 1.14 16.33 1 15.95 1 15.53L1 7.63c0.28 0.31 0.63 0.59 1.02 0.87 2.43 1.64 4.08 2.75 4.99 3.41 0.39 0.28 0.7 0.52 0.91 0.66 0.25 0.14 0.56 0.31 0.95 0.49 0.42 0.14 0.77 0.24 1.13 0.24l0 0c0.35 0 0.7-0.1 1.13-0.24 0.39-0.17 0.7-0.35 0.95-0.49 0.21-0.14 0.53-0.38 0.91-0.66 1.16-0.8 2.81-1.95 4.99-3.41C18.37 8.22 18.72 7.94 19 7.63zm0-2.93c0 0.52-0.18 1.01-0.49 1.5-0.32 0.49-0.74 0.87-1.23 1.22-2.5 1.74-4.08 2.82-4.71 3.24-0.04 0.03-0.21 0.14-0.42 0.31-0.21 0.14-0.39 0.28-0.53 0.38-0.14 0.07-0.32 0.17-0.53 0.31-0.21 0.1-0.39 0.21-0.56 0.28-0.21 0.03-0.35 0.07-0.53 0.07l0 0c-0.18 0-0.32-0.03-0.53-0.07C9.3 11.88 9.12 11.77 8.91 11.67 8.7 11.53 8.52 11.42 8.38 11.35 8.24 11.25 8.07 11.11 7.86 10.97 7.64 10.8 7.47 10.69 7.43 10.66 6.8 10.24 5.92 9.61 4.8 8.85 3.64 8.05 2.97 7.59 2.72 7.42 2.3 7.14 1.91 6.76 1.56 6.27 1.18 5.78 1 5.33 1 4.91 1 4.39 1.14 3.97 1.42 3.62 1.7 3.27 2.09 3.1 2.62 3.1l14.77 0c0.46 0 0.81 0.17 1.13 0.49C18.82 3.9 19 4.25 19 4.7z"/></svg>
