<svg xmlns:svg="http://www.w3.org/2000/svg" xmlns="http://www.w3.org/2000/svg" version="1.1" viewBox="0 0 100 100"><path d="m77.2 84.2c0 0.4 0 0.8-0.2 1.1-0.3 0.7-0.8 0.7-1.3 0.9-1.2 0.5-2.7 0.6-4 0.9-1.8 0.3-3.7 0.5-5.3 0.7-0.8 0-1.5 0-2.1 0-8.5 0-15.8-2.4-22.1-7C36.1 76.1 31.8 69.7 29.6 61.8l-5.1 0c-0.5 0-0.9-0.2-1.3-0.5-0.2-0.2-0.4-0.8-0.4-1.1l0-6c0-0.5 0.2-0.9 0.4-1.3 0.4-0.4 0.8-0.4 1.3-0.4l3.6 0c-0.2-2.1-0.2-4 0-5.6l-3.6 0c-0.5 0-0.9-0.2-1.3-0.5-0.2-0.4-0.4-0.8-0.4-1.3l0-6c0-0.5 0.2-0.9 0.4-1.3 0.4-0.2 0.8-0.4 1.3-0.4l5.3 0c2.4-7.5 6.8-13.6 13-18.3 6.4-4.5 13.6-6.8 21.7-6.8 3.6 0 7.2 0.4 10.4 1.1 0.4 0.2 0.8 0.4 1.1 0.8 0.2 0.5 0.2 0.9 0.2 1.3l-2.3 8.7c-0.2 0.4-0.4 0.8-0.8 0.9-0.5 0.4-0.9 0.4-1.3 0.2l-0.2 0c-0.2 0-0.4-0.2-0.8-0.2L69.9 24.8c0 0-0.4 0-1.1-0.2C68 24.5 67.5 24.5 67.2 24.5c0 0-0.5 0-1.5-0.2-0.9 0-1.5 0-1.5 0-4.5 0-8.7 1.1-12.3 3.4-3.6 2.4-6.2 5.5-8.1 9.6l25.3 0c0.5 0 0.9 0.2 1.3 0.5 0.4 0.4 0.5 0.9 0.4 1.5l-1.3 6c-0.2 0.9-0.8 1.5-1.7 1.5l-26.2 0c-0.2 1.3-0.2 3.2 0 5.6l24.7 0c0.5 0 0.9 0.2 1.3 0.5 0.4 0.4 0.4 0.9 0.4 1.5l-1.3 6c-0.2 0.4-0.4 0.8-0.5 0.9-0.4 0.2-0.8 0.4-1.1 0.4l-20.9 0c1.9 4.2 4.5 7.5 8.1 10 3.6 2.4 7.7 3.8 12.3 3.8 3 0 5.6-0.7 8.2-1.2 1.4-0.2 1.2 0 1.7 0 0.5 0.4 0.8 0.8 0.9 1.1 0.6 2.2 1.3 5.9 1.9 8.5z"/><rect width="92.6" height="7.6" x="-61.7" y="-72.8" transform="matrix(-0.84423838,0.53596786,-0.53596786,-0.84423838,0,0)" ry="3"/></svg>
