<svg xmlns="http://www.w3.org/2000/svg" width="20" height="20" version="1.1" viewBox="0 0 512 512">
  <path d="m389 373l10 46c0 2 0 4-1 6c-1 2-3 4-5 4l-2 1c0 0-1 0-3 1c-1 0-2 0-4 1c-2 1-4 1-6 2c-3 0-5 1-8 1c-2 0-5 1-8 1c-3 1-6 1-10 2c-3 0-6 0-10 1c-4 0-8 0-11 0c-45 0-84-13-117-37c-33-25-56-59-68-101l-27 0c-3 0-5-1-7-3c-1-1-2-4-2-6l0-32c0-3 1-5 2-7c2-2 4-2 7-2l19 0c-1-11-1-21 0-30l-19 0c-3 0-5-1-7-3c-1-2-2-4-2-7l0-32c0-3 1-5 2-7c2-1 4-2 7-2l28 0c13-40 36-72 69-97c34-24 72-36 115-36c19 0 38 2 55 6c2 1 4 2 6 4c1 3 1 5 1 7l-12 46c-1 2-2 4-4 5c-3 2-5 2-7 1l-1 0c-1 0-2-1-4-1l-5-1c0 0-2 0-6-1c-4-1-7-1-8-1c0 0-3 0-8-1c-5 0-8 0-8 0c-24 0-46 6-65 18c-19 13-33 29-43 51l134 0c3 0 5 1 7 3c2 2 3 5 2 8l-7 32c-1 5-4 8-9 8l-139 0c-1 7-1 17 0 30l131 0c3 0 5 1 7 3c2 2 2 5 2 8l-7 32c-1 2-2 4-3 5c-2 1-4 2-6 2l-111 0c10 22 24 40 43 53c19 13 41 20 65 20c4 0 7 0 11-1c3 0 6 0 9-1c3 0 6-1 9-1c2 0 5-1 7-1c2-1 3-1 5-2l3-1l2 0c2-1 5-1 7 0c3 2 4 4 5 6z"/>
</svg>
