<svg xmlns="http://www.w3.org/2000/svg" width="100" height="100" version="1.1" viewBox="0 0 512 512">
  <path fill="#000" d="m475 274c-29-45-65-78-108-101c11 20 17 42 17 65c0 35-13 65-38 90c-25 25-55 38-90 38c-35 0-65-13-90-38c-25-25-38-55-38-90c0-23 6-45 17-65c-43 23-79 56-108 101c25 39 57 70 95 94c38 23 79 34 124 34c45 0 86-11 124-34c38-24 70-55 95-94z m-205-109c0-4-2-7-4-10c-3-3-6-4-10-4c-24 0-44 8-61 25c-17 17-26 38-26 62c0 4 1 7 4 9c3 3 6 4 10 4c4 0 7-1 10-4c2-2 4-5 4-9c0-17 5-31 17-42c12-12 26-18 42-18c4 0 7-1 10-4c2-2 4-6 4-9z m242 109c0 7-2 13-6 20c-26 44-62 79-107 105c-45 27-93 40-143 40c-50 0-98-13-143-40c-45-26-81-61-107-105c-4-7-6-13-6-20c0-6 2-13 6-19c26-44 62-79 107-106c45-26 93-39 143-39c50 0 98 13 143 39c45 27 81 62 107 106c4 6 6 13 6 19z"/>
</svg>
