<svg xmlns="http://www.w3.org/2000/svg" width="20" height="20" version="1.1" viewBox="0 0 512 512">
  <path d="m256 10c68 0 126 24 174 72c48 48 72 106 72 174c0 68-24 125-72 174c-48 48-106 72-174 72c-68 0-126-24-174-72c-48-49-72-106-72-174c0-68 24-126 72-174c48-48 106-72 174-72m58 169c0 0 0-40 0-40c0 0-36 0-36 0c-16 0-28 6-38 17c-11 11-16 25-16 42c0 0 0 22 0 22c0 0-39 0-39 0c0 0 0 38 0 38c0 0 39 0 39 0c0 0 0 114 0 114c0 0 44 0 44 0c0 0 0-114 0-114c0 0 46 0 46 0c0 0 0-38 0-38c0 0-46 0-46 0c0 0 0-26 0-26c0-10 3-15 10-15c0 0 36 0 36 0"/>
</svg>
