<svg xmlns="http://www.w3.org/2000/svg" width="20" height="20" version="1.1" viewBox="0 0 512 512">
  <path d="m232 186c3 11 3 20 0 30c-3 9-8 14-16 16c0 0-5 0-5 0c-14 0-25-10-31-30c-2-11-1-20 1-28c4-8 9-13 16-15c0-1 2-1 5-1c15 0 25 9 30 28m24-176c68 0 126 24 174 72c48 48 72 106 72 174c0 68-24 125-72 174c-48 48-106 72-174 72c-68 0-125-24-174-72c-48-49-72-106-72-174c0-68 24-126 72-174c49-48 106-72 174-72m-14 351c20-10 30-26 30-50c0-15-8-30-26-47c-9-7-14-13-14-16c0-4 4-9 11-14c11-11 17-25 17-40c0-20-6-34-18-40c0-1 2-2 5-2c3 0 4 0 5 0c14-2 20-5 20-9c0 0 0-2 0-2c0 0-59 0-59 0c-4 0-10 1-17 2c-7 2-16 7-27 17c-11 9-16 22-16 39c0 19 6 32 19 41c8 5 17 8 29 8c0 0 3 0 3 0c-2 8 1 17 8 25c0 0-1 0-1 0c-47 0-71 16-71 49c0 13 5 24 15 32c9 8 18 12 25 14c7 1 14 2 20 2c0 0 2 0 2 0c0 0 2 0 2 0c13 0 26-3 38-9m130-106c0 0 0-25 0-25c0 0-39 0-39 0c0 0 0-39 0-39c0 0-25 0-25 0c0 0 0 39 0 39c0 0-39 0-39 0c0 0 0 25 0 25c0 0 39 0 39 0c0 0 0 39 0 39c0 0 25 0 25 0c0 0 0-39 0-39c0 0 39 0 39 0m-161 30c11 0 20 3 27 8c6 6 10 14 11 22c1 9-3 17-10 23c-7 6-16 9-28 10c-12 2-22 0-31-5c-9-6-13-13-14-21c0-9 4-18 11-25c7-7 17-11 30-12c0 0 4 0 4 0"/>
</svg>
