<svg xmlns="http://www.w3.org/2000/svg" version="1.1" viewBox="0 0 20 20"><path d="m10.49 15.48c0-0.15-0.04-0.3-0.08-0.45-0.04-0.15-0.04-0.27-0.08-0.38-0.04-0.11-0.11-0.27-0.19-0.38-0.11-0.15-0.19-0.23-0.23-0.34-0.08-0.08-0.19-0.19-0.3-0.3-0.11-0.15-0.23-0.23-0.3-0.3-0.08-0.04-0.19-0.15-0.34-0.27-0.15-0.11-0.26-0.19-0.34-0.23-0.04-0.08-0.19-0.15-0.34-0.27-0.19-0.11-0.3-0.19-0.34-0.23-0.11 0-0.3-0.04-0.53-0.04-0.42 0-0.79 0.04-1.17 0.08-0.34 0.08-0.76 0.15-1.13 0.3-0.42 0.11-0.76 0.27-1.06 0.49-0.3 0.19-0.57 0.45-0.76 0.8s-0.3 0.72-0.3 1.17c0 0.49 0.15 0.91 0.38 1.29 0.26 0.42 0.61 0.72 1.02 0.91 0.42 0.23 0.83 0.42 1.29 0.49 0.45 0.11 0.91 0.19 1.4 0.19 0.42 0 0.83-0.04 1.21-0.15 0.38-0.08 0.72-0.23 1.06-0.42 0.34-0.19 0.61-0.45 0.83-0.8 0.19-0.34 0.3-0.72 0.3-1.17zm-1.32-9.36c0-0.42-0.04-0.87-0.15-1.36-0.15-0.49-0.3-0.95-0.53-1.4-0.23-0.45-0.53-0.83-0.91-1.14-0.38-0.3-0.79-0.45-1.29-0.45-0.68 0-1.17 0.27-1.55 0.76s-0.57 1.1-0.57 1.78c0 0.34 0.04 0.68 0.15 1.06 0.08 0.38 0.19 0.76 0.38 1.14 0.15 0.38 0.38 0.72 0.61 1.02 0.23 0.3 0.49 0.53 0.83 0.72 0.34 0.19 0.68 0.27 1.06 0.27 0.68 0 1.21-0.19 1.51-0.64 0.3-0.42 0.45-1.02 0.45-1.74zm-1.4-5.12h4.73l-1.47 0.83h-1.44c0.49 0.34 0.91 0.8 1.17 1.36 0.26 0.61 0.42 1.21 0.42 1.82 0 0.57-0.08 1.02-0.23 1.44-0.19 0.42-0.38 0.76-0.61 0.99-0.26 0.27-0.49 0.49-0.72 0.72-0.26 0.19-0.45 0.42-0.61 0.64-0.19 0.23-0.26 0.49-0.26 0.76 0 0.19 0.08 0.34 0.19 0.53 0.11 0.19 0.26 0.34 0.45 0.53 0.19 0.15 0.42 0.34 0.64 0.53 0.23 0.15 0.45 0.38 0.68 0.57 0.23 0.23 0.45 0.49 0.64 0.72 0.19 0.27 0.34 0.57 0.45 0.95 0.11 0.34 0.19 0.72 0.19 1.14 0 1.14-0.49 2.16-1.51 3.07-1.1 0.95-2.61 1.4-4.54 1.4-0.42 0-0.87-0.04-1.29-0.11-0.45-0.08-0.87-0.19-1.32-0.34-0.45-0.19-0.83-0.38-1.17-0.64-0.34-0.27-0.61-0.57-0.83-0.95-0.23-0.42-0.34-0.83-0.34-1.33 0-0.45 0.15-0.95 0.42-1.48 0.23-0.45 0.57-0.83 1.02-1.17 0.45-0.34 0.98-0.61 1.59-0.8 0.57-0.15 1.13-0.3 1.66-0.38 0.53-0.08 1.06-0.11 1.63-0.15-0.45-0.61-0.68-1.14-0.68-1.59v-0.27c0.04-0.08 0.04-0.15 0.08-0.23 0-0.04 0.04-0.11 0.08-0.23 0.04-0.08 0.04-0.15 0.08-0.23-0.3 0.04-0.53 0.08-0.76 0.08-1.1 0-2-0.38-2.76-1.06-0.76-0.72-1.17-1.63-1.17-2.69 0-0.99 0.34-1.89 1.06-2.69 0.68-0.8 1.51-1.33 2.5-1.55 0.68-0.15 1.36-0.19 2.04-0.19zm11.23 2.77v1.36h-2.76v2.77h-1.4v-2.77h-2.76v-1.36h2.76v-2.77h1.4v2.77z"/></svg>
