<svg xmlns:svg="http://www.w3.org/2000/svg" xmlns="http://www.w3.org/2000/svg" version="1.1" viewBox="0 0 20 20">
  <path d="m10.64 19 6.41 0 0-6.41-6.41 0zm-7.69 0 6.41 0 0-6.41-6.41 0zm7.69-11.7c0.64-0.08 1.32-0.16 1.76-0.2 1.68-0.16 3.16-1.68 3.36-3.36 0.2-1.68-1.04-2.88-2.68-2.68-1.32 0.12-2.52 1.08-3.08 2.28-0.56-1.2-1.76-2.16-3.08-2.32-1.64-0.16-2.88 1.04-2.68 2.72 0.2 1.68 1.72 3.2 3.36 3.36 0.44 0.04 1.12 0.12 1.76 0.2 0 0.08 0 0.16 0 0.16l1.28 0c0 0 0-0.08 0-0.16zm2.16-4.73c0.88-0.08 1.56 0.56 1.44 1.48-0.08 0.88-0.92 1.72-1.8 1.8-0.92 0.12-1.56-0.52-1.48-1.44 0.12-0.92 0.92-1.72 1.84-1.84zm-5.25 3.28c-0.88-0.08-1.72-0.92-1.8-1.8-0.12-0.92 0.56-1.56 1.44-1.48 0.92 0.12 1.72 0.92 1.84 1.84 0.08 0.92-0.56 1.56-1.48 1.44zm3.08 1.6 0 3.85 7.69 0 0-3.85zm-8.97 3.85 7.69 0 0-3.85-7.69 0z"/>
</svg>
