<svg xmlns:svg="http://www.w3.org/2000/svg" xmlns="http://www.w3.org/2000/svg" version="1.1" viewBox="0 0 20 20"><path d="m18.74 10.29c0.23 0.23 0.31 0.39 0.23 0.54-0.08 0.15-0.23 0.23-0.55 0.23 0 0-1.68 0-1.68 0 0 0 0 6.12 0 6.12 0 0.19 0 0.35 0 0.43-0.04 0.08-0.08 0.19-0.16 0.27C16.47 17.96 16.32 18 16.12 18c0 0-4.1 0-4.1 0 0 0 0-6.16 0-6.16 0 0-4.06 0-4.06 0 0 0 0 6.16 0 6.16 0 0-3.86 0-3.86 0C3.71 18 3.47 17.92 3.39 17.81 3.28 17.65 3.24 17.46 3.24 17.19c0 0 0-6.12 0-6.12 0 0-1.68 0-1.68 0-0.27 0-0.47-0.08-0.55-0.23-0.04-0.15 0-0.31 0.23-0.54 0 0 8-7.98 8-7.98C9.45 2.12 9.72 2 9.99 2c0.31 0 0.55 0.12 0.78 0.31 0 0 7.96 7.98 7.96 7.98"/></svg>
