<svg xmlns="http://www.w3.org/2000/svg" version="1.1" viewBox="0 0 20 20">
  <path d="M10 1C8.36 1 6.84 1.37 5.48 2.19 4.08 3.01 3.01 4.08 2.19 5.48 1.37 6.84 1 8.36 1 10 1 11.64 1.37 13.16 2.19 14.52 3.01 15.92 4.08 16.99 5.48 17.81 6.84 18.63 8.36 19 10 19 11.64 19 13.16 18.63 14.52 17.81 15.92 16.99 16.99 15.92 17.81 14.52 18.63 13.16 19 11.64 19 10 19 8.36 18.63 6.84 17.81 5.48 16.99 4.08 15.92 3.01 14.52 2.19 13.16 1.37 11.64 1 10 1zM6.13 5.07C6.48 5.07 6.74 5.16 6.93 5.36 7.13 5.57 7.24 5.81 7.26 6.14 7.26 6.42 7.15 6.68 6.93 6.9 6.72 7.1 6.46 7.21 6.11 7.21 5.78 7.21 5.5 7.1 5.3 6.9 5.09 6.68 5 6.42 5 6.14 5 5.81 5.09 5.57 5.3 5.36 5.5 5.16 5.78 5.07 6.13 5.07zM12.54 7.9C13.28 7.9 13.87 8.14 14.33 8.64 14.78 9.14 15 9.88 15 10.86L15 14.93 12.87 14.93 12.87 11.12C12.87 10.12 12.5 9.64 11.78 9.64 11.26 9.64 10.89 9.9 10.7 10.42 10.65 10.53 10.63 10.71 10.63 10.97L10.63 14.93 8.46 14.93 8.46 10.25C8.46 9.62 8.46 8.88 8.41 8.05L10.26 8.05 10.37 9.01 10.41 9.01C10.87 8.27 11.57 7.9 12.54 7.9zM5.06 8.05L7.2 8.05 7.2 14.93 5.06 14.93 5.06 8.05z"/>
</svg>
