<svg xmlns:svg="http://www.w3.org/2000/svg" xmlns="http://www.w3.org/2000/svg" version="1.1" width="20" height="20" viewBox="0 0 20 20">
    <path d="m12.81 10c0 1.55-1.26 2.81-2.81 2.81-1.55 0-2.81-1.26-2.81-2.81 0-0.16 0.02-0.32 0.05-0.47H6.25v3.75C6.25 13.54 6.46 13.75 6.72 13.75H13.28C13.54 13.75 13.75 13.54 13.75 13.28V9.53h-0.98c0.03 0.15 0.05 0.31 0.05 0.47zM10 11.88c1.03 0 1.88-0.84 1.88-1.87 0-1.03-0.84-1.87-1.87-1.87-1.03 0-1.87 0.84-1.87 1.88 0 1.03 0.84 1.88 1.88 1.88zm2.25-3.84h1.12c0.16 0 0.28-0.13 0.28-0.28V6.63c0-0.16-0.13-0.28-0.28-0.28H12.25c-0.16 0-0.28 0.13-0.28 0.28V7.75c0 0.15 0.13 0.28 0.28 0.28zM10 1c-4.97 0-9 4.03-9 9 0 4.97 4.03 9 9 9 4.97 0 9-4.03 9-9 0-4.97-4.03-9-9-9zm4.69 12.65c0 0.57-0.47 1.04-1.04 1.04H6.35C5.78 14.69 5.31 14.22 5.31 13.65V6.35C5.31 5.78 5.78 5.31 6.35 5.31h7.29c0.57 0 1.04 0.47 1.04 1.04z"/>
</svg>
