<svg xmlns="http://www.w3.org/2000/svg" version="1.1" viewBox="0 0 20 20"><path d="m10 1c1.6 0 2.9 0.6 4 1.7 1.1 1.1 1.6 2.4 1.6 4 0 1.6-0.5 3.4-1.4 5.5-0.9 2-1.8 3.7-2.8 5C11.4 17.1 10 19 10 19 9.9 18.8 9.6 18.6 9.4 18.2 9.1 17.9 8.7 17.2 8 16.2 7.4 15.2 6.8 14.3 6.4 13.3 5.8 12.3 5.4 11.2 5 10 4.6 8.7 4.4 7.6 4.4 6.6 4.4 5.1 4.9 3.7 6 2.7 7.1 1.6 8.5 1 10 1m0 8.7c0.8 0 1.6-0.3 2.2-0.9 0.6-0.6 0.9-1.3 0.9-2.2 0-0.8-0.3-1.5-0.9-2.1C11.6 3.9 10.8 3.7 10 3.7 9.2 3.7 8.5 3.9 7.8 4.6 7.3 5.1 7 5.8 7 6.7c0 0.8 0.3 1.6 0.9 2.2C8.5 9.4 9.2 9.7 10 9.7"/></svg>
