<svg xmlns:svg="http://www.w3.org/2000/svg" xmlns="http://www.w3.org/2000/svg" version="1.1" viewBox="0 0 20 20">
  <path d="m15.8 9.11-0.84 0 0-2.86C14.96 4.84 14.41 3.54 13.5 2.57 12.7 1.63 11.4 1 10 1 8.61 1 7.33 1.63 6.46 2.56 5.54 3.53 5 4.83 5 6.24l0 2.96 2.37 0 0-2.96C7.37 5.42 7.7 4.72 8.17 4.19 8.65 3.68 9.31 3.38 10 3.38c0.69 0 1.35 0.3 1.83 0.82 0.48 0.52 0.8 1.23 0.8 2.05l0 2.86-8.47 0C3.82 9.11 3.53 9.4 3.53 9.74l0 7.55c0 0.37 0.29 0.52 0.66 0.63 0.36 0.2 2.85 1.1 5.84 1.1 3 0 5.5-0.9 5.8-1.1 0.4-0.1 0.7-0.2 0.7-0.6l0-7.55c0-0.33-0.29-0.63-0.66-0.63zm-2.99 3.55-3.32 3.27c-0.07 0.11-0.22 0.19-0.36 0.19-0.14 0-0.29-0.07-0.4-0.19l-1.61-1.6c-0.22-0.19-0.22-0.56 0-0.78 0.22-0.19 0.58-0.19 0.8 0l1.21 1.23 2.88-2.9c0.22-0.22 0.58-0.22 0.8 0 0.22 0.22 0.22 0.56 0 0.78z"/>
</svg>
