<svg xmlns="http://www.w3.org/2000/svg" version="1.1" viewBox="0 0 20 20"><path d="m15.95 9.11h-0.86c-0.02-1.21 0.05-2.43-0.06-3.65-0.2-1.54-1.16-2.93-2.47-3.73-0.76-0.47-1.65-0.74-2.56-0.73-2.17-0.01-4.22 1.51-4.83 3.59-0.41 1.26-0.22 2.59-0.26 3.89-0.07 0.2 0.17 0.71-0.18 0.63-0.48 0.01-1.18-0.11-1.33 0.51-0.03 2.56 0 5.12-0.01 7.67 0.22 0.84 1.41 0.76 2.08 1.09 3.48 0.97 7.26 0.79 10.62-0.51 0.56-0.1 0.56-0.67 0.53-1.11-0.01-2.38 0.02-4.76-0.01-7.14-0.06-0.3-0.36-0.51-0.66-0.51zm-3.98 6.79c-0.41 0.38-0.86-0.02-1.12-0.35-0.28-0.29-0.57-0.58-0.85-0.87-0.43 0.43-0.83 0.89-1.28 1.3-0.64 0.41-1.16-0.61-0.56-0.98 0.37-0.36 0.73-0.71 1.1-1.07-0.42-0.43-0.89-0.83-1.29-1.28-0.41-0.64 0.6-1.17 0.97-0.56 0.36 0.37 0.71 0.73 1.07 1.1 0.43-0.42 0.83-0.89 1.28-1.29 0.64-0.41 1.17 0.6 0.56 0.97-0.37 0.36-0.73 0.71-1.1 1.07 0.42 0.43 0.89 0.83 1.29 1.28 0.12 0.21 0.1 0.5-0.06 0.69zm0.71-6.79h-5.36c0.02-1.1-0.04-2.21 0.03-3.31 0.17-1.52 1.76-2.78 3.28-2.33 1.35 0.36 2.17 1.79 2.04 3.14 0 0.84 0 1.67 0 2.51z"/>
</svg>
