<svg xmlns:svg="http://www.w3.org/2000/svg" xmlns="http://www.w3.org/2000/svg" version="1.1" xml:space="preserve" height="100%" width="100%" viewBox="0 0 180 45">
    <path id="rect6-2" d="m6.719 5.963c-2.298 0-4.162 1.865-4.162 4.163l0 24.75c0 2.298 1.865 4.163 4.163 4.163l6.694 0C17.33 37.751 23.695 35.792 25.253 32.259 27.528 27.102 17.838 22.446 13.188 18.816 8.923 15.486 8.77 8.74 14.875 5.963l-8.156 0zm16.706 0c-4.567 0.967-8.896 2.889-9.169 5.85-0.434 4.526 5.06 6.56 10.575 11.138 5.515 4.578 7.084 11.725-0.703 15.778-0.341 0.117-0.675 0.2-1.012 0.309l8.353 0c2.298 0 4.163-1.865 4.163-4.162l0-24.75c0-2.298-1.865-4.162-4.162-4.162l-8.044 0z" style="fill:currentColor"/>
    <path id="path10" d="m40.355 27.342c0.406-0.854 0.564-1.823 0.94-2.698 0.515-1.302 1.069-2.593 1.79-3.781 1.148-1.875 3.929-4.354 6.153-2.875 1.761 1.156 1.672 4.583 1.88 6.477 0.277 2.51 0.653 4.926 1.929 7.103 0.337 0.573-0.285 0.995-0.72 0.859-0.198 0-0.198-0.209-0.693-1.042-0.594-1.146-0.89-2.395-1.187-3.646-0.396-2.083-0.495-4.271-0.792-6.455-0.198-1.042-0.495-2.291-1.583-2.5-1.355-0.208-2.602 0.781-3.423 1.792-1.613 1.969-2.464 4.489-3.216 6.926-0.317 1.01-0.564 2-0.792 3.021-0.228 1.052-1.524 1.876-1.474 0.333 0.069-2.24 0.237-4.479 0.425-6.707 0.218-2.656 0.409-4.177 0.574-7.981 0.067-2.614-0.033-3.021-0.01-4.468-0.027-0.699 0.693-1.25 0.891-0.625 0.309 3.052-0.321 11.455-0.712 16.352h0.051z" style="stroke-linecap:round;stroke-linejoin:round;stroke-width:1.3;stroke:currentColor;fill:currentColor"/>
    <path id="path12" d="m67.637 22.15c-0.367 1.792-0.782 3.687-0.693 5.529 0.05 0.99 0.227 1.792 0.653 2.667 0.148 0.292 0.366 0.625 0.307 0.979-0.089 0.542-0.653 0.375-0.94 0.135-0.445-0.365-0.673-1.427-0.801-1.99-0.228-1.02-0.257-2.083-0.208-3.135-1.296 2.365-3.136 5.041-5.711 5.958-1.029 0.365-2.454 0.448-3.325-0.354-1.049-0.968-1.079-2.395-0.91-3.739 0.366-3.021 1.91-5.888 3.879-8.072 1.386-1.666 4.651-3.75 6.529-2.708 1.881 1.071 1.576 3.212 1.22 4.817zm-4.627-3.372c-2.692 1.729-4.641 4.583-5.563 7.74-0.327 1.156-0.594 2.031-0.386 3.167 0.297 1.625 1.642 1.979 3.008 1.406 2.83-1.167 4.641-4.26 5.888-7.023 0.564-1.25 1.594-3.396 0.94-4.677-0.89-1.458-2.513-1.333-3.879-0.614h-0.019z" style="stroke-linecap:round;stroke-linejoin:round;stroke-width:1.3;stroke:currentColor;fill:currentColor"/>
    <path id="path14" d="m78.919 17.119c0.97 0.5 1.583 1.438 1.9 2.5 0.138 0.458 0.485 1.395-0.05 1.687-0.396 0.219-0.91-0.042-0.92-0.521 0.188-1.063-0.346-2.219-1.286-2.677-1.089-0.573-2.345 0.187-2.988 1.125-1.306 2-2.098 4.396-2.583 6.76-0.247 1.198-0.504 2.417-0.653 3.636-0.144 1.375 0.227 2.812-0.94 2.656-0.712-0.094-0.316-1.562-0.237-2.886 0.109-2.229 0.247-4.458 0.336-6.696 0.04-1.042 0.159-2.104-0.02-3.135-0.067-0.754 0.138-1.208 0.653-1.292 0.682-0.104 0.455 0.885 0.455 1.333 0.01 1.5-0.079 2.989-0.148 4.479 0.485-1.792 1.089-3.729 2.147-5.239 1.068-1.552 2.898-2.355 4.322-1.766z" style="stroke-linecap:round;stroke-linejoin:round;stroke-width:1.3;stroke:currentColor;fill:currentColor"/>
    <path id="path16" d="m85.218 18.243c0.326 0.117 0.044 1.568-0.048 2.485-0.296 2.812-0.495 5.626-0.495 8.543 0.02 0.885 0.327 1.969 1.227 2.24 1.009 0.116 1.712-0.388 2.444 0.094 0.293 0.626-0.515 0.817-1.267 1.042-1.395 0.281-2.978-0.667-3.236-2.188-0.155-1.823-0.122-3.5 0.062-5.344 0.296-1.875 0.495-3.75 0.495-5.519 0.05-0.935-0.29-1.406 0.682-1.375l0.203 0.054zm1.068-3.586c0.614 0.813-0.286 2.01-1.217 1.771-0.762-0.479-0.138-1.761 0.396-2 0.198-0.104 0.693 0 0.792 0.208z" style="stroke-linecap:round;stroke-linejoin:round;stroke-width:1.3;stroke:currentColor;fill:currentColor"/>
    <path id="path18" d="m100.688 17.868c2.622 0.315 2.781 3.417 2.91 5.417 0.159 2.552 0.079 5.125 0.307 7.676 0.012 1.843-0.411 2.458-0.821 1.551-0.34-0.978-0.277-2.562-0.337-3.843-0.118-2.427 0.05-4.906-0.336-7.312-0.138-0.906-0.465-1.99-1.356-2.364-1.386-0.385-2.761 0.323-3.75 1.312-1.742 1.761-2.751 4.344-3.572 6.675-0.317 0.896-0.613 1.802-0.901 2.718-0.247 0.761-0.297 2.333-1.197 2.51-0.881 0.188-0.495-1.499-0.445-1.937 0.148-1.364 0.337-2.729 0.515-4.083 0.168-1.281 0.307-2.573 0.396-3.864 0.03-0.49 0.06-0.979 0.06-1.469 0.056-0.989-0.083-1.604 0.218-1.833 0.795-0.421 0.772 0.708 0.782 1.135 0.02 0.875 0 1.75-0.069 2.615-0.109 1.458-0.277 2.895-0.475 4.343 2.442-5.073 4.181-9.308 8.075-9.244z" style="stroke-linecap:round;stroke-linejoin:round;stroke-width:1.3;stroke:currentColor;fill:currentColor"/>
    <path id="path20" d="m120.975 22.471c0.07 2.906-0.396 6.284-2.454 8.334-1.326 1.375-3.374 2.136-5.166 1.345-1.642-0.625-3.028-2.126-3.335-3.959-0.495 2.781-0.851 5.583-1.049 8.393-0.05 1.073 0.073 2.812-0.554 3.198-1.098 0.625-0.732-0.99-0.712-1.636 0.366-5.727 0.752-11.455 1.118-17.187 0.129-0.99 0.078-2.791 0.564-3 1.069-0.208 0.636 0.782 0.515 1.958-0.118 1.885-0.257 3.77-0.376 5.647 0.09-2.75 1.148-5.438 3.107-7.312 1.336-1.292 2.257-1.625 4.453-1.416 2.644 0.214 3.865 3.586 3.916 5.567zm-10.882 3.533c-0.168 2.73 2.89 5.658 5.156 5.219 2.226-0.448 3.681-2.636 4.235-4.812 0.504-2.031 0.623-4.271-0.109-6.252-0.554-1.364-1.88-2.469-3.344-2.26-2.969 0.521-5.573 4.646-5.939 8.125v-0.014z" style="stroke-linecap:round;stroke-linejoin:round;stroke-width:1.3;stroke:currentColor;fill:currentColor"/>
    <path id="path22" d="m125.875 9.732c0.762 0.229 0.138 4.114 0.089 4.76-0.158 2.271-0.316 4.552-0.515 6.825-0.227 2.593-0.574 5.26-0.524 7.874 0.02 1.031 0.504 2.479 1.712 2.354 0.564-0.052 1.089-0.323 1.672-0.199 0.653 0.146 0.059 0.969-0.307 1.126-0.86 0.375-2.335 0.188-3.047-0.469-0.99-0.906-1.009-2.197-0.99-3.469 0.02-1.645 0.079-3.27 0.208-4.896 0.207-2.625 0.445-5.239 0.633-7.863 0.079-1.021 0.198-2.031 0.227-3.052 0.051-1.766 0-2.944 0.814-2.998z" style="stroke-linecap:round;stroke-linejoin:round;stroke-width:1.3;stroke:currentColor;fill:currentColor"/>
    <path id="path26" d="m142.2 22.257c-0.366 1.792-0.782 3.687-0.692 5.529 0.049 0.99 0.227 1.792 0.653 2.666 0.148 0.292 0.366 0.625 0.307 0.979-0.089 0.542-0.653 0.375-0.94 0.136-0.445-0.365-0.673-1.427-0.801-1.99-0.227-1.021-0.257-2.084-0.207-3.135-1.296 2.364-3.137 5.041-5.711 5.958-1.029 0.365-2.454 0.447-3.325-0.354-1.049-0.969-1.079-2.396-0.91-3.739 0.366-3.021 1.91-5.883 3.879-8.072 1.386-1.667 4.651-3.75 6.529-2.708 1.881 1.071 1.576 3.212 1.22 4.817zm-4.678-3.319c-2.692 1.729-4.641 4.583-5.563 7.74-0.327 1.156-0.594 2.031-0.386 3.167 0.296 1.625 1.642 1.979 3.008 1.406 2.83-1.167 4.641-4.26 5.889-7.023 0.564-1.25 1.594-3.396 0.94-4.677-0.89-1.458-2.513-1.333-3.879-0.614h-0.002z" style="stroke-linecap:round;stroke-linejoin:round;stroke-width:1.3;stroke:currentColor;fill:currentColor"/>
    <path id="path24" d="m155.833 21.294c-0.353 0.769-0.847-0.605-1.059-0.962-0.554-1.073-1.573-2.187-2.839-1.979-1.574 0.414-2.771 1.719-3.721 3.041-1.434 2.041-2.484 4.593-2.147 7.178 0.219 1.459 1.504 2.396 2.8 2.708 2.524 0.626 5.146 0.077 7.582-0.687 0.654-0.204 1.336-0.846 2.028-0.451 0.831 0.881-0.724 1.035-1.257 1.302-2.196 0.732-4.492 1.24-6.799 1.188-1.821-0.041-3.79-0.752-4.77-2.469-1.108-1.907-0.706-4.312 0.061-6.268 0.79-1.938 2.018-3.687 3.503-5.104 1.098-1.024 2.969-1.854 4.127-1.344 1.504 0.707 2.692 3.104 2.503 3.854l0.051-0.054z" style="stroke-linecap:round;stroke-linejoin:round;stroke-width:1.3;stroke:currentColor;fill:currentColor"/>
    <path id="path28" d="m172.436 22.471c-2.147 2.741-5.304 3.969-8.914 4.093-1.312 0.002-1.919-0.21-1.157 1.563 0.362 0.745 1.252 2.113 3.37 2.961 2.031 0.768 5.634 0.526 7.892 0.289 0.534 0.032 0.723 0.761-0.059 1.053-1.135 0.353-1.989 0.363-4.493 0.356-3.465 0.014-7.017-1.777-8.065-4.442-0.951-2.682 0.415-1.792 0.039-1.777-0.612-0.084-1.703 0.185-1.951-0.638 0-0.661 1.168-0.496 1.95-0.369 0.454 0.464-0.873 1.476 0.271-1.896 1.089-2.75 3.462-4.798 6.214-5.615 3.434-0.816 4.708 0.256 5.212 0.948 0.251 0.361 1.094 1.704-0.308 3.467zm-3-3.693c-3.66 0.381-6.412 3.219-7.531 6.793 2.83-0.052 5.888-0.396 8.212-2.157 2.204-1.711 2.657-4.455 0.003-4.63h-0.661z" style="stroke-linecap:round;stroke-linejoin:round;stroke-width:1.3;stroke:currentColor;fill:currentColor"/>
</svg>
