<svg xmlns:svg="http://www.w3.org/2000/svg" xmlns="http://www.w3.org/2000/svg" version="1.1" viewBox="0 0 20 20">
  <path d="m10 8.186c-2.696 0-4.892 2.192-4.892 4.892 0 2.696 2.192 4.892 4.892 4.892 2.696 0 4.892-2.192 4.892-4.892 0-2.696-2.196-4.892-4.892-4.892zM10 7.156c-3.272 0-5.922 2.653-5.922 5.922 0 3.269 2.65 5.922 5.922 5.922 3.272 0 5.922-2.653 5.922-5.922 0-1.103-0.302-2.136-0.828-3.021C14.713 9.414 14.212 8.85 13.624 8.394 12.623 7.618 11.366 7.156 10 7.156Zm0 11.081c-2.844 0-5.162-2.311-5.162-5.159 0-2.848 2.311-5.162 5.162-5.162 2.844 0 5.162 2.311 5.162 5.162 0 2.844-2.318 5.159-5.162 5.159z" fill="currentColor"/><rect height="0.378" width="3.809" y="6.44" x="8.099" fill="#666"/><polygon points="302.8 142.9 212.2 0 106.5 0 197.2 142.9 " transform="matrix(0.036,0,0,0.036,1,1)" fill="#00578e"/><polygon points="393.5 0 287.8 0 255.2 51.3 308.1 134.7 " transform="matrix(0.036,0,0,0.036,1,1)" fill="#009bfc"/>
</svg>
