<svg xmlns:svg="http://www.w3.org/2000/svg" xmlns="http://www.w3.org/2000/svg" version="1.1" viewBox="0 0 20 20">
  <path d="m17.24 7.01c0.74 1.84 1.21 3.55 1.33 5.15 0.12 1.6-0.16 2.54-0.78 2.81-0.39 0.16-0.78 0.16-1.21-0.08-0.47-0.2-0.9-0.47-1.33-0.78-0.43-0.35-1.05-0.62-1.95-0.82-0.9-0.2-1.91-0.27-3.01-0.16-0.35 0.04-0.62 0.16-0.82 0.39-0.2 0.2-0.23 0.43-0.12 0.74 0.27 0.74 0.59 1.44 0.9 2.15 0.08 0.12 0.23 0.27 0.51 0.43 0.27 0.16 0.43 0.31 0.47 0.39 0.2 0.47 0.04 0.78-0.43 0.94-0.66 0.27-1.37 0.55-2.07 0.78-0.39 0.16-0.74-0.12-1.05-0.82-0.43-1.02-0.82-1.91-1.17-2.65-0.08-0.16-0.31-0.27-0.66-0.31-0.39-0.08-0.7-0.27-0.94-0.62-0.39 0.12-0.66 0.23-0.74 0.27-0.47 0.16-0.98 0.08-1.48-0.23-0.55-0.31-0.9-0.74-1.09-1.21-0.2-0.43-0.23-0.94-0.08-1.56 0.12-0.62 0.43-1.05 0.86-1.25 1.68-0.66 3.08-1.41 4.26-2.15 1.13-0.74 1.99-1.44 2.46-2.07 0.51-0.62 0.9-1.21 1.17-1.84 0.31-0.59 0.47-1.09 0.51-1.56 0.04-0.43 0.16-0.82 0.31-1.17 0.16-0.35 0.39-0.59 0.7-0.7 0.66-0.27 1.52 0.2 2.62 1.37 1.09 1.21 2.03 2.73 2.85 4.57M16.65 13.02c0.12-0.08 0.2-0.31 0.2-0.78 0.04-0.43-0.04-1.09-0.2-1.95C16.46 9.43 16.18 8.57 15.83 7.75c-0.39-0.9-0.82-1.72-1.37-2.46-0.51-0.78-0.94-1.33-1.33-1.68-0.35-0.39-0.62-0.51-0.7-0.47-0.12 0.04-0.2 0.31-0.2 0.82-0.04 0.51 0.04 1.21 0.2 2.11 0.16 0.9 0.43 1.8 0.78 2.65 0.39 0.9 0.82 1.68 1.37 2.38 0.55 0.7 0.98 1.21 1.37 1.52 0.35 0.31 0.62 0.43 0.7 0.39"/>
</svg>
