<svg xmlns="http://www.w3.org/2000/svg" version="1.1" viewBox="0 0 20 20"><path d="m13.48 1c0.54 0 0.97 0.18 1.33 0.54 0.36 0.36 0.5 0.79 0.5 1.29 0 0 0 14.34 0 14.34 0 0.47-0.14 0.9-0.5 1.29C14.45 18.82 14.02 19 13.48 19c0 0-6.96 0-6.96 0-0.5 0-0.93-0.18-1.29-0.54-0.36-0.39-0.54-0.82-0.54-1.29 0 0 0-14.34 0-14.34 0-0.5 0.18-0.93 0.54-1.29C5.59 1.18 6.02 1 6.52 1c0 0 6.96 0 6.96 0m-3.48 17.25c0.36 0 0.68-0.07 0.93-0.25 0.22-0.18 0.36-0.39 0.36-0.65 0-0.29-0.14-0.5-0.36-0.68-0.25-0.14-0.57-0.25-0.93-0.25-0.36 0-0.65 0.11-0.9 0.29-0.25 0.18-0.39 0.39-0.39 0.65 0 0.25 0.14 0.47 0.39 0.65 0.25 0.18 0.54 0.25 0.9 0.25m3.87-2.73c0 0 0-12.12 0-12.12 0 0-7.75 0-7.75 0 0 0 0 12.12 0 12.12 0 0 7.75 0 7.75 0"/></svg>
