<svg xmlns="http://www.w3.org/2000/svg" width="20" height="20" version="1.1" viewBox="0 0 512 512">
  <path d="m171 171c0 14-5 26-15 36c-10 10-22 15-37 15c-14 0-26-5-36-15c-10-10-15-22-15-36c0-15 5-27 15-37c10-10 22-15 36-15c15 0 27 5 37 15c10 10 15 22 15 37z m273 102l0 120l-376 0l0-52l86-85l42 43l137-137z m25-188l-426 0c-3 0-5 1-6 3c-2 2-3 4-3 6l0 324c0 2 1 4 3 6c1 2 3 3 6 3l426 0c3 0 5-1 6-3c2-2 3-4 3-6l0-324c0-2-1-4-3-6c-1-2-3-3-6-3z m43 9l0 324c0 12-4 22-13 30c-8 9-18 13-30 13l-426 0c-12 0-22-4-30-13c-9-8-13-18-13-30l0-324c0-12 4-22 13-30c8-9 18-13 30-13l426 0c12 0 22 4 30 13c9 8 13 18 13 30z"/>
</svg>
