<svg xmlns="http://www.w3.org/2000/svg" width="100" height="100" version="1.1" viewBox="0 0 512 512">
  <path fill="#000" d="m410 51c14 0 26 5 36 15c10 10 15 22 15 36c0 0 0 308 0 308c0 13-5 25-15 35c-10 11-22 16-36 16c0 0-308 0-308 0c-13 0-25-5-35-16c-11-10-16-22-16-35c0 0 0-308 0-308c0-14 5-26 16-36c10-10 22-15 35-15c0 0 308 0 308 0m-26 231c0 0 0-52 0-52c0 0-102 0-102 0c0 0 0-102 0-102c0 0-52 0-52 0c0 0 0 102 0 102c0 0-102 0-102 0c0 0 0 52 0 52c0 0 102 0 102 0c0 0 0 102 0 102c0 0 52 0 52 0c0 0 0-102 0-102c0 0 102 0 102 0"/>
</svg>
