<svg xmlns="http://www.w3.org/2000/svg" height="100%" width="100%" version="1.1" viewBox="0 0 20 20"><path d="m18.3 10.7c-0.05 1.11-0.19 2.2-0.64 3.22s-1.02 1.93-1.78 2.65c-0.72 0.76-1.63 1.33-2.65 1.78-1 0.4-2.1 0.6-3.2 0.6-1.14 0-2.2-0.2-3.22-0.6-1.02-0.5-1.93-1.1-2.65-1.8-0.76-0.7-1.33-1.7-1.79-2.7-0.45-1-0.64-2.1-0.64-3.2 0-1.33 0.27-2.54 0.87-3.71 0.57-1.18 1.37-2.12 2.43-2.92 0.3-0.23 0.68-0.34 1.06-0.27 0.38 0.04 0.68 0.23 0.87 0.53 0.27 0.31 0.34 0.65 0.27 1.03-0.04 0.38-0.23 0.68-0.54 0.91-0.68 0.53-1.25 1.17-1.62 1.97-0.38 0.76-0.57 1.59-0.57 2.46 0 0.76 0.15 1.48 0.42 2.16 0.3 0.68 0.68 1.25 1.21 1.74 0.49 0.53 1.06 0.91 1.74 1.21 0.68 0.27 1.4 0.42 2.16 0.42 0.76 0 1.48-0.15 2.16-0.42 0.68-0.3 1.25-0.68 1.74-1.21 0.53-0.49 0.91-1.06 1.21-1.74 0.27-0.68 0.42-1.4 0.42-2.16 0-0.87-0.19-1.71-0.57-2.46-0.3-0.8-0.9-1.44-1.6-1.97-0.3-0.23-0.5-0.53-0.5-0.91-0.08-0.38 0-0.72 0.27-1.02 0.19-0.3 0.49-0.49 0.91-0.53 0.38-0.08 0.72 0.04 1.02 0.27 1.06 0.8 1.86 1.74 2.43 2.92 0.6 1.3 0.84 2.64 0.79 3.76zm-6.9-8.3 0 6.9c0 0.38-0.15 0.72-0.42 0.99-0.3 0.27-0.61 0.42-0.98 0.42s-0.68-0.15-0.98-0.42c-0.27-0.3-0.42-0.62-0.42-1v-6.9c0-0.38 0.15-0.72 0.42-0.98 0.3-0.27 0.6-0.42 0.98-0.42 0.38 0 0.68 0.15 0.99 0.42 0.27 0.27 0.42 0.61 0.42 0.99z"/>
</svg>
