<svg xmlns="http://www.w3.org/2000/svg" version="1.1" viewBox="0 0 20 20"><path d="M10 1C5 1 1 5 1 10 1 15 5 19 10 19 15 19 19 15 19 10 19 5 15 1 10 1zM9.8 3.4C10.5 3.4 11.1 3.5 11.6 3.7 12.1 3.9 12.5 4.1 12.8 4.4 13.1 4.7 13.3 5 13.4 5.4 13.5 5.8 13.6 6.1 13.6 6.4 13.6 6.9 13.5 7.2 13.3 7.5 13.1 7.8 12.9 8.2 12.7 8.4 12.4 8.7 12.1 9 11.8 9.2 11.5 9.5 11.3 9.8 11 10 10.7 10.3 10.5 10.6 10.3 10.9 10.2 11.3 10.1 11.6 10.1 12L10.1 12.2C10.1 12.3 10.1 12.3 10.1 12.4L8.6 12.4C8.5 12.2 8.5 11.9 8.5 11.7 8.5 11.3 8.6 10.9 8.7 10.6 8.9 10.3 9.1 10 9.3 9.7 9.6 9.4 9.8 9.2 10.1 8.9 10.3 8.7 10.6 8.5 10.8 8.2 11.1 8 11.3 7.7 11.4 7.4 11.6 7.2 11.6 6.9 11.6 6.6 11.6 6.1 11.5 5.7 11.1 5.3 10.7 5 10.2 4.8 9.5 4.8 8.7 4.8 7.8 5.1 7 5.5L6.4 4.2C6.9 3.9 7.4 3.8 7.9 3.6 8.5 3.5 9.1 3.4 9.8 3.4zM9.2 14.2C9.2 14.1 9.3 14.2 9.4 14.2 9.8 14.2 10.2 14.3 10.4 14.5 10.6 14.7 10.8 15 10.8 15.4 10.8 15.7 10.6 16 10.4 16.2 10.2 16.5 9.8 16.6 9.4 16.6 9 16.6 8.7 16.5 8.5 16.2 8.2 16 8.1 15.7 8.1 15.4 8.1 15 8.2 14.7 8.5 14.5 8.6 14.3 8.9 14.2 9.2 14.2z"/></svg>
