<svg xmlns="http://www.w3.org/2000/svg" width="100" height="100" version="1.1" viewBox="0 0 512 512">
  <path fill="#000" d="m468 302c0 1 0 1 0 2c-12 51-38 92-77 124c-38 32-84 47-136 47c-28 0-55-5-81-15c-26-11-49-26-69-45l-37 37c-4 3-8 5-13 5c-5 0-9-2-13-5c-4-4-5-8-5-13l0-128c0-5 1-9 5-13c4-4 8-5 13-5l128 0c5 0 9 1 13 5c3 4 5 8 5 13c0 5-2 9-5 13l-39 39c13 12 28 22 46 29c17 7 35 10 53 10c26 0 49-6 71-18c23-13 40-30 54-51c2-4 7-15 15-34c1-4 4-6 8-6l55 0c3 0 5 0 7 2c1 2 2 4 2 7z m7-229l0 128c0 5-1 9-5 13c-4 4-8 5-13 5l-128 0c-5 0-9-1-13-5c-3-4-5-8-5-13c0-5 2-9 5-13l40-39c-28-26-62-39-100-39c-26 0-49 6-71 18c-23 13-40 30-54 51c-2 4-7 15-15 34c-1 4-4 6-8 6l-57 0c-3 0-5 0-7-2c-1-2-2-4-2-7l0-2c12-51 38-92 77-124c39-32 85-47 137-47c28 0 55 5 81 15c26 11 50 26 70 45l37-37c4-3 8-5 13-5c5 0 9 2 13 5c4 4 5 8 5 13z"/>
</svg>
