<svg xmlns:svg="http://www.w3.org/2000/svg" xmlns="http://www.w3.org/2000/svg" version="1.1" viewBox="0 0 100 100">
    <path d="M7.8 28.9 50 50 92.2 28.9l0 45L50 95 7.8 73.9l0-45z" fill="#00578e"/>
    <path d="m7.8 33.1 0 13.1 42 20.6 42.3-20.7 0-13.1L50 53.8 7.8 33.1Z" fill="#044a76"/>
    <path d="M50 95 50 50 10.6 30.3l-2.8 0 0 43.6L50 95Z" fill="#024a78"/>
    <path d="m7.8 33.1 0 13.1L49.9 66.9 50 66.8 50 53.7 50 53.8 7.8 33.1Z" fill="#054061"/><path d="M5 27.4 50 5 95 27.4 95 30.4 50 52.8 5 30.5 5 27.4Z" fill="#0064a3"/>
    <path d="M75.8 12.1C74.3 9.4 71.2 7.8 67.4 7.8c-8.5 0-14.5 7.9-17.4 13-3-5.1-9-12.9-17.4-12.9-5.4 0-9.3 3.3-9.3 7.8 0 8 8.8 13.2 26.4 13.2 17.6 0 27-6.7 27-13.1 0-1.3-0.3-2.5-0.9-3.7zm-41.4 8.6c-2-1.3-2.7-2.8-2.7-3.8 0-1.2 1.1-2.1 2.7-2.1 3.8 0 6.8 5 8.5 8.4-4.4-0.4-7-1.5-8.6-2.5zm31.2 0c-1.5 1-4.1 2.2-8.6 2.5 1.6-3.4 4.6-8.4 8.5-8.4 1.6 0 2.7 0.9 2.7 2.1 0 1-0.7 2.5-2.7 3.8z" fill="#ffb205"/>
    <path d="M5 27.5 50 49.5 95 27.5 95 42.1 49.9 64.1 5 42.1 5 27.5Z" fill="#00578e"/>
    <path d="m66.9 43.2 0-1.6L50 32.4l-16.9 9.1 0 1.6-11.2-4.9 0-2.2L49.4 21.5 50 21.7l0.6-0.3 27.6 14.5 0 2.2-11.2 5z" fill="#ffb205"/>
    <path d="m66.9 41.6 0 44.9 11.2-5.6 0-44.9-11.2 5.6zM21.9 80.9l11.2 5.6 0-44.9-11.2-5.7c0 0 0 45 0 45z" fill="#f2a600"/>
</svg>
