<svg xmlns="http://www.w3.org/2000/svg" xmlns:xlink="http://www.w3.org/1999/xlink" viewBox="0 0 900 160" version="1.1">
    <path d="m564.467 16.355-77.291 126.662 30.467 0c-0.003-1.648-0.002-3.499 0-4.939l-1.781-0.197c-0.954-0.115-1.384-0.201-1.722-0.354-0.074-0.429 0.135-0.98 0.309-1.343l49.994-80.676 14.512 23.943 0.014 0.02c7.807 12.178 9.083 17.027 34.686 56.795 0.269 0.366 0.512 0.789 0.34 1.219-0.529 0.342-0.66 0.358-1.535 0.383l-2 0 0 5.15 30.783 0zm-206.551 5.867c-10.624-0.007-21.251 0.001-31.881 0.08-11.529-0.157-23.412 2.544-32.928 9.707-17.668 12.091-26.782 33.843-25.602 54.805 0.256 16.981 7.906 33.892 21.689 44.256 9.691 8.159 22.229 11.388 34.41 11.727l0.002 0 0.004 0c20.308 0.479 40.38 0.115 57.939 0.229l10.217-20.033-19.275 0-0.018 0c-16.419-0.14-32.784 0.325-49.049-0.328l-0.021-0.002-0.021 0c-12.608-0.236-24.572-8.258-29.834-19.697-1.851-4.265-3.046-8.863-3.656-13.555 28.891 0 57.714 0 82.6 0 3.519-7.114 6.59-13.32 9.906-20.025l-91.098 0c1.678-5.912 4.462-11.458 8.572-16.07l0.035-0.039 0.033-0.043c7.349-9.189 20.064-11.431 31.779-11.223l0.018 0.002 0.018 0c17.961 0 35.617-0.002 51.154-0.002l10.146-19.785c-12.089 0.028-24.724 0.006-35.141-0.002zm500.217 0c-10.624-0.007-21.251 0.001-31.881 0.08-11.532-0.157-23.419 2.544-32.936 9.711-17.664 12.092-26.774 33.842-25.594 54.801 0.256 16.981 7.906 33.892 21.689 44.256 9.691 8.159 22.227 11.388 34.408 11.727l0.004 0 0.004 0c20.307 0.479 40.379 0.115 57.938 0.229 3.63-7.115 6.793-13.32 10.215-20.027-6.577-0.018-13.564-0.002-19.271-0.006l-0.016 0c-16.42-0.141-32.785 0.325-49.051-0.328l-0.021-0.002-0.021 0c-12.608-0.236-24.572-8.258-29.834-19.697-1.851-4.265-3.046-8.863-3.656-13.555 28.891 0 57.714 0 82.6 0 3.519-7.114 6.59-13.32 9.906-20.025l-91.1 0c1.678-5.912 4.464-11.458 8.574-16.07l0.035-0.039 0.033-0.043c7.349-9.189 20.064-11.431 31.779-11.223l0.018 0.002 0.018 0c17.961 0 35.617-0.002 51.154-0.002L893.274 22.225c-12.089 0.028-24.724 0.006-35.141-0.002zm-809.209 0.008c-10.329 0-18.643 2.354-24.686 7.271-6.037 4.913-9.119 11.936-9.119 20.453 0 7.461 2.257 13.847 6.77 18.775l0.006 0.004 0.004 0.004c4.515 4.871 11.215 8.349 19.951 10.604l0.004 0.002 48.305 12.24c9.79 2.621 16.879 6.461 21.406 11.344l0.006 0.008 0.008 0.008c4.577 4.831 6.85 10.868 6.85 18.514 0 0.729-0.029 1.147-0.055 1.535l-98.859 0-8.832 20.025 129.252 0 0-22.217c0-12.09-3.871-22.501-11.541-30.857-7.669-8.356-18.735-14.324-33.025-18.008L59.354 62.645 58.221 62.352C50.728 60.447 45.151 58.295 41.637 56.057c-3.542-2.256-4.848-4.338-4.848-6.43 0-2.821 0.808-4.4 2.561-5.568l0.014-0.01 0.014-0.008c1.764-1.218 4.945-2.029 9.547-2.029 23.278 0 46.556-0.002 69.834-0.002L132.563 22.23Zm101.088 0c-4.395 6.901-8.941 14.054-12.588 19.779 19.265 0 39.255 0.002 55.82 0.002 0 35.398 0 70.446 0 101.006l21.176 0c0-35.082 0.002-70.943 0.002-101.006 16.551 0 32.763-0.002 47.094-0.002l10.246-19.779zm257.328 0c-0.003 41.743 0 83.849 0 120.787l66.053 0c4.45-6.988 9.061-14.224 12.754-20.025-19.548 0-39.661 0-57.629 0 0-35.313 0-70.274 0-100.762zm293.955 0c-8.227 0-14.46 0.374-18.854 1.184-4.338 0.799-8.413 2.146-12.203 4.041l-0.004 0.004-0.006 0.002c-4.242 2.149-8.154 4.728-11.725 7.732-3.574 3.007-6.754 6.415-9.531 10.213l-0.002 0 0 0.002c-3.963 5.435-6.968 11.42-9.004 17.922l-0.004 0.008-0.002 0.008c-1.979 6.503-2.963 13.443-2.963 20.799 0 9.5 1.719 18.204 5.184 26.041l0.004 0.008 0.004 0.008c3.521 7.781 8.713 14.481 15.506 20.031 0.001 0.001 0.002 0.003 0.004 0.004 0.002 0.001 0.004 0.002 0.006 0.004 5.544 4.58 11.501 7.892 17.84 9.891l0.01 0.004 0.012 0.004c6.456 1.96 15.207 2.879 26.387 2.879l49.141 0 10.213-20.025-59.354 0c-7.509 0-13.371-0.581-17.479-1.658-4.074-1.137-7.764-3.006-11.121-5.641l0-0.002-0.002 0c-4.797-3.754-8.351-8.317-10.742-13.775-2.391-5.513-3.613-11.94-3.613-19.332 0-6.938 1.241-13.168 3.695-18.756l0-0.004 0.002-0.004c2.452-5.634 6.053-10.458 10.865-14.543l0.004-0.002c2.933-2.426 6.548-4.248 10.92-5.445 4.355-1.192 9.975-1.818 16.813-1.818 17.051-0.001 34.103-0.002 51.154-0.002l10.143-19.779z" style="fill:currentColor"/>
</svg>
