<svg xmlns="http://www.w3.org/2000/svg" version="1.1" viewBox="0 0 20 20"><path d="m10 1c-4.97 0-9 4.03-9 9 0 4.97 4.03 9 9 9 4.97 0 9-4.03 9-9 0-4.97-4.03-9-9-9zm5.28 3.19c0.15 0.01 0.24 0.1 0.28 0.25l0.03 0C15.92 5.28 15.86 6.1 15.5 6.84 15.13 7.59 14.59 8.2 13.91 8.72L14.13 9c0.12 0.22 0.13 0.46 0.06 0.66l-0.59 1.88c-0.1 0.26-0.28 0.42-0.47 0.56l-5.78 3.94C7.01 16.26 6.73 16.26 6.56 16L3.94 12.34C3.84 12.2 3.79 12.03 3.81 11.88 3.86 11.71 3.92 11.55 4.06 11.47L9.88 7.53c0.22-0.14 0.44-0.19 0.66-0.19l1.97 0c0.26 0 0.48 0.12 0.63 0.31L13.44 8.13c1.42-1.03 1.91-2.17 1.47-3.44-0.1-0.22-0.05-0.37 0.19-0.47 0.07-0.02 0.14-0.03 0.19-0.03zm-2.94 4.09c-0.19 0-0.38 0.06-0.56 0.19-0.25 0.14-0.39 0.36-0.44 0.63-0.05 0.28 0.01 0.49 0.16 0.72 0.17 0.19 0.37 0.33 0.66 0.38 0.26 0.05 0.5 0.02 0.72-0.12l0.03 0C13.23 9.8 13.37 9.47 13.31 9.09l-0.37 0.22c-0.07 0.02-0.13 0.03-0.16 0.03-0.17 0-0.27-0.07-0.37-0.22-0.1-0.23-0.03-0.4 0.19-0.5L12.94 8.47C12.73 8.34 12.53 8.28 12.34 8.28z"/></svg>
