<svg xmlns="http://www.w3.org/2000/svg" version="1.1" viewBox="0 0 20 20"><path d="m18.7 1.39c0.48 1.26 0.4 2.46-0.15 3.58s-1.35 2.07-2.38 2.84c0 0 0.33 0.42 0.33 0.42 0.18 0.32 0.22 0.67 0.11 0.95 0 0-0.91 2.84-0.91 2.84-0.15 0.39-0.37 0.63-0.66 0.84 0 0-8.71 5.9-8.71 5.9-0.51 0.35-0.91 0.32-1.17-0.07 0 0-3.95-5.47-3.95-5.47-0.15-0.21-0.22-0.46-0.18-0.7 0.07-0.25 0.18-0.46 0.4-0.6 0 0 8.71-5.9 8.71-5.9 0.33-0.21 0.66-0.32 0.99-0.32h2.96c0.4 0 0.7 0.18 0.92 0.46 0 0 0.51 0.74 0.51 0.74 2.12-1.54 2.82-3.26 2.16-5.16-0.15-0.32-0.04-0.56 0.33-0.7 0.4-0.1 0.62 0.04 0.7 0.35m-4.03 8.42c0.48-0.39 0.7-0.88 0.62-1.44 0 0-0.59 0.28-0.59 0.28-0.11 0.04-0.18 0.07-0.22 0.07-0.26 0-0.4-0.1-0.55-0.32-0.15-0.35-0.04-0.6 0.29-0.74 0 0 0.48-0.25 0.48-0.25-0.62-0.39-1.17-0.39-1.72 0-0.37 0.21-0.59 0.53-0.66 0.91-0.07 0.42 0.04 0.77 0.26 1.12 0.26 0.28 0.55 0.49 0.99 0.56 0.4 0.07 0.77 0 1.1-0.21"/></svg>
