<svg xmlns:svg="http://www.w3.org/2000/svg" xmlns="http://www.w3.org/2000/svg" version="1.1" viewBox="0 0 20 20">
  <path d="m13.64 7.37c0.04 0.08 0.43 0.2 1.18 0.27 0.74 0.08 1.45 0.27 2.15 0.47 0.71 0.24 1.06 0.55 1.06 0.94 0 0.98-0.43 2.86-1.21 5.72C15.99 17.59 15.25 19 14.66 19 12.74 19 10.78 18.73 8.86 18.18 6.94 17.63 6 17.04 6 16.41c0 0 0-6.86 0-6.86 0-0.2 0.08-0.43 0.27-0.71 0.2-0.24 0.51-0.55 0.94-0.9 0.39-0.31 0.74-0.59 1.06-0.82 0.27-0.2 0.71-0.51 1.25-0.86 0.51-0.35 0.82-0.55 0.9-0.63 0.67-0.43 1.37-1.1 2.12-2 0.71-0.86 1.25-1.57 1.68-2.08 0.43-0.51 0.71-0.67 0.82-0.51 0.63 1.02 0.82 1.92 0.59 2.74-0.27 0.82-0.67 1.61-1.18 2.39-0.55 0.78-0.82 1.18-0.82 1.18m-8.66 0.08c0.2 0 0.2 0.12 0 0.31-0.67 0.67-1.02 1.33-1.02 2.08 0 0 0 6.39 0 6.39 0 0.67 0.35 1.37 1.06 2.08 0.12 0.12 0.12 0.2-0.04 0.2-0.35 0-0.71-0.04-1.1-0.16C3.5 18.22 3.07 17.94 2.64 17.43 2.2 16.92 1.97 16.26 1.97 15.44c0 0 0-4.86 0-4.86 0-0.82 0.24-1.49 0.67-2 0.43-0.51 0.86-0.82 1.25-0.94 0.43-0.12 0.78-0.2 1.1-0.2"/>
</svg>
