<svg xmlns:svg="http://www.w3.org/2000/svg" xmlns="http://www.w3.org/2000/svg" version="1.1" viewBox="0 0 20 20">
    <path d="m10.01 1-3.09 0c-1.44 0-2.49 1.15-2.49 2.41l0 8.9c0 1.22 0.95 2.22 1.91 2.37l-2.87 4.31 1.66 0 2.05-3.01 2.81 0 0 0 0 0 2.81 0 2.05 3.01 1.66 0-2.87-4.31c0.96-0.15 1.91-1.15 1.91-2.37l0-8.9c0-1.26-1.06-2.41-2.5-2.41l-3.06 0zm-1.22 0.52 1.21 0 0 0 0 0 1.21 0c0.22 0 0.41 0.18 0.41 0.4l0 0.71c0 0.22-0.18 0.41-0.41 0.41l-1.21 0 0 0 0 0-1.21 0c-0.23 0-0.41-0.19-0.41-0.41l0-0.71c0-0.22 0.19-0.4 0.41-0.4zm-1.78 2 2.99 0 0 0 2.99 0c0.81 0 1.24 0.58 1.24 1.25l0 1.6c0.01 0.77-0.56 1.24-1.24 1.24l-2.99 0 0 0 0 0-2.99 0c-0.69 0-1.25-0.47-1.24-1.24l0-1.6c0-0.67 0.43-1.25 1.24-1.25zm-0.14 7.69c0.6 0 1.09 0.49 1.09 1.09 0 0.6-0.49 1.09-1.09 1.09-0.6 0-1.09-0.49-1.09-1.09 0-0.6 0.49-1.09 1.09-1.09zm6.23 0c0.6 0 1.09 0.49 1.09 1.09 0 0.6-0.49 1.09-1.09 1.09-0.6 0-1.09-0.49-1.09-1.09 0-0.6 0.49-1.09 1.09-1.09z"/>
</svg>
