<svg xmlns:svg="http://www.w3.org/2000/svg" xmlns="http://www.w3.org/2000/svg" version="1.1" viewBox="0 0 20 20">
    <path d="M5.43 3.15 3.28 8.52C2.52 8.89 2 9.67 2 10.57l0 2.1 16 0 0-2.1C18 9.67 17.48 8.89 16.72 8.52l-2.15-5.37-0.57 0-1.15 0-5.71 0-1.15 0-0.57 0zm1.02 1.71 7.09 0 1.37 3.43-9.83 0 1.37-3.43zm-1.45 4.44c0.62 0 1.28 0.65 1.28 1.28 0 0.63-0.66 1.29-1.28 1.29-0.64 0-1.29-0.66-1.29-1.29 0-0.63 0.65-1.28 1.29-1.28zm10 0c0.63 0 1.28 0.65 1.28 1.28 0 0.63-0.65 1.29-1.28 1.29-0.63 0-1.29-0.66-1.29-1.29 0-0.63 0.66-1.28 1.29-1.28zM2 13.11 2 14c0 0.31 0.26 0.57 0.57 0.57l0.58 0 0 1.15c0 0.63 0.07 1.14 1.14 1.14 1.08 0 1.15-0.51 1.15-1.14l0-1.15 9.14 0 0 1.15c0 0.63 0.12 1.14 1.15 1.14 1.03 0 1.14-0.51 1.14-1.14l0-1.15 0.58 0C17.74 14.57 18 14.31 18 14l0-0.89-16 0z"/>
</svg>
