<svg xmlns="http://www.w3.org/2000/svg" version="1.1" viewBox="0 0 20 20"><path d="m3.82 8.02c1.54 0.88 3.59 1.32 6.18 1.32 2.6 0 4.65-0.44 6.18-1.32 0 0-1.02 9.11-1.02 9.11 0 0.15-0.22 0.37-0.66 0.66-0.4 0.26-1.02 0.55-1.87 0.8C11.79 18.85 10.91 19 10 19 9.09 19 8.21 18.85 7.37 18.6 6.56 18.34 5.94 18.05 5.5 17.79 5.1 17.5 4.84 17.28 4.84 17.13c0 0-1.02-9.11-1.02-9.11m9.15-5.63c1.17 0.22 2.16 0.59 2.96 1.02 0.8 0.48 1.21 0.91 1.21 1.35 0 0 0 0.18 0 0.18 0 0.73-0.73 1.32-2.12 1.83-1.39 0.51-3.07 0.77-5.01 0.77-1.94 0-3.62-0.26-5.01-0.77-1.39-0.51-2.12-1.1-2.12-1.83 0 0 0-0.18 0-0.18 0-0.44 0.4-0.88 1.21-1.35 0.8-0.44 1.79-0.8 2.96-1.02 0 0 0.8-0.88 0.8-0.88C8.1 1.18 8.54 1 9.12 1c0 0 1.76 0 1.76 0 0.62 0 1.06 0.18 1.28 0.51 0 0 0.8 0.88 0.8 0.88m-1.02 2.09c0 0 1.57 0 1.57 0-1.13-1.35-1.79-2.16-1.94-2.34-0.18-0.22-0.37-0.29-0.59-0.29 0 0-1.94 0-1.94 0-0.26 0-0.48 0.07-0.59 0.29 0 0-1.98 2.34-1.98 2.34 0 0 1.57 0 1.57 0 0 0 1.21-1.21 1.21-1.21 0 0 1.54 0 1.54 0 0 0 1.13 1.21 1.13 1.21"/></svg>
