<svg xmlns="http://www.w3.org/2000/svg" version="1.1" viewBox="0 0 20 20"><path d="m15.8 9.11-0.84 0 0-2.86c0-1.41-0.55-2.71-1.46-3.68-0.8-0.94-2.1-1.57-3.5-1.57-1.39 0-2.67 0.63-3.54 1.56-0.92 0.97-1.46 2.27-1.46 3.68v0.74h2.37v-0.74c0-0.82 0.33-1.52 0.8-2.05 0.48-0.51 1.14-0.81 1.83-0.81 0.69 0 1.35 0.3 1.83 0.82 0.48 0.52 0.8 1.23 0.8 2.05v2.86h-8.47c-0.34 0-0.63 0.29-0.63 0.63v7.55c0 0.37 0.29 0.52 0.66 0.63 0.36 0.2 2.85 1.1 5.84 1.1 3 0 5.5-0.9 5.8-1.1 0.4-0.1 0.7-0.2 0.7-0.6v-7.55c0-0.33-0.29-0.63-0.66-0.63zm-2.99 3.55-3.32 3.27c-0.07 0.11-0.22 0.19-0.36 0.19s-0.29-0.07-0.4-0.19l-1.61-1.6c-0.22-0.19-0.22-0.56 0-0.78 0.22-0.19 0.58-0.19 0.8 0l1.21 1.23 2.88-2.9c0.22-0.22 0.58-0.22 0.8 0s0.22 0.56 0 0.78z"/></svg>
