<svg xmlns="http://www.w3.org/2000/svg" version="1.1" viewBox="0 0 20 20"><path d="m18.26 15.96c0 0.95-0.29 1.68-0.86 2.26C16.82 18.75 16.08 19 15.14 19L4.86 19C3.92 19 3.18 18.75 2.6 18.22 2.03 17.64 1.74 16.9 1.74 15.96c0-0.41 0-0.82 0.04-1.19 0.04-0.41 0.08-0.82 0.16-1.27 0.08-0.45 0.16-0.9 0.29-1.27 0.12-0.41 0.33-0.78 0.53-1.15 0.21-0.37 0.45-0.7 0.7-0.95C3.75 9.84 4.08 9.63 4.49 9.47 4.86 9.34 5.32 9.26 5.81 9.26c0.04 0 0.21 0.08 0.49 0.25 0.25 0.16 0.53 0.37 0.86 0.58 0.33 0.21 0.74 0.37 1.27 0.53 0.53 0.16 1.03 0.25 1.56 0.25 0.53 0 1.03-0.08 1.56-0.25 0.53-0.16 0.95-0.33 1.27-0.53 0.33-0.21 0.62-0.41 0.86-0.58 0.29-0.16 0.45-0.25 0.49-0.25 0.49 0 0.95 0.08 1.32 0.21 0.41 0.16 0.74 0.37 1.03 0.66 0.25 0.25 0.49 0.58 0.7 0.95 0.21 0.37 0.41 0.74 0.53 1.15 0.12 0.37 0.21 0.82 0.29 1.27 0.08 0.45 0.12 0.86 0.16 1.27 0.04 0.37 0.04 0.78 0.04 1.19zM14.52 5.48c0 1.27-0.45 2.3-1.32 3.21C12.3 9.55 11.23 10 10 10 8.77 10 7.7 9.55 6.79 8.68 5.93 7.78 5.48 6.75 5.48 5.48 5.48 4.25 5.93 3.18 6.79 2.32 7.7 1.41 8.77 1 10 1c1.23 0 2.3 0.41 3.21 1.32 0.86 0.86 1.32 1.93 1.32 3.16z"/></svg>
