<svg xmlns="http://www.w3.org/2000/svg" version="1.1" viewBox="0 0 20 20"><path d="m18.3 4.34c0.56 0.56 0.76 1.25 0.72 1.77 0 0.52-0.2 1.56-1.3 2.61-1 1.04-3.1 1.68-4.5 0.96-0.2-0.12-0.6-0.2-0.9 0.12-0.4 0.4-8.09 8.6-8.09 8.6-0.68 0.76-1.93 0.72-2.65 0-0.72-0.72-0.76-1.97 0-2.65 0 0 8.32-7.79 8.64-8.12 0.32-0.32 0.2-0.64 0.12-0.88-0.8-1.89 0.08-3.58 0.96-4.5 0.88-0.96 2.05-1.25 2.61-1.29 0.52-0.04 1.25 0.2 1.77 0.72l-2.29 2.25 0.4 2.25 2.21 0.4zm-14.9 13.2c0.24-0.24 0.24-0.68 0-0.92s-0.64-0.24-0.88 0-0.24 0.68 0 0.92 0.64 0.24 0.88 0z"/></svg>
