<svg xmlns="http://www.w3.org/2000/svg" version="1.1" viewBox="0 0 20 20"><path d="M10 1C5.03 1 1 5.03 1 10 1 14.97 5.03 19 10 19 14.97 19 19 14.97 19 10 19 5.03 14.97 1 10 1zM12.59 4C12.94 3.97 13.43 4.12 13.78 4.47L12.25 5.97 12.5 7.47 13.97 7.75 15.53 6.25C15.9 6.62 16.03 7.09 16 7.44 16 7.78 15.86 8.49 15.13 9.19 14.46 9.88 13.06 10.29 12.13 9.81 11.99 9.73 11.73 9.69 11.53 9.91 11.26 10.17 6.13 15.63 6.13 15.63 5.67 16.13 4.85 16.11 4.38 15.63 3.9 15.15 3.87 14.33 4.38 13.88 4.38 13.88 9.91 8.66 10.13 8.44 10.34 8.22 10.27 8.03 10.22 7.88 9.69 6.61 10.26 5.49 10.84 4.88 11.43 4.24 12.22 4.03 12.59 4zM5.28 14.31C5.17 14.31 5.08 14.36 5 14.44 4.84 14.6 4.84 14.9 5 15.06 5.16 15.22 5.43 15.22 5.59 15.06 5.75 14.9 5.75 14.6 5.59 14.44 5.51 14.36 5.39 14.31 5.28 14.31z"/></svg>
